# xmcd CD database file
#
# Track frame offsets:
#	150
#	9393
#	25801
#	39368
#	47996
#	66214
#	78629
#	91794
#	95700
#	105353
#	121044
#	135802
#	148376
#	164992
#	178412
#	194979
#	208397
#
# Disc length: 3031 seconds
#
# Revision: 0
# Processed by: cddbd v1.5.1PL2 Copyright (c) Steve Scherf et al.
# Submitted via: freeDB plugin v1.0
#
DISCID=fa0bd511
DTITLE=アーティスト情報なし - アルバム情報なし (2006/03/10 22:01:25)
DYEAR=1900
DGENRE=Misc
TTITLE0=ミスター・ロンリー
TTITLE1=愛と青春の旅立ち
TTITLE2=一晩中踊れたら
TTITLE3=恋人と呼ばせて
TTITLE4=四月の恋
TTITLE5=セプテンバー・ソング
TTITLE6=愛のワルツ
TTITLE7=ナレーション『独り言』
TTITLE8=８０日間世界一周
TTITLE9=愛のプレリュード
TTITLE10=モア
TTITLE11=この胸のときめきを
TTITLE12=朝日のようにさわやかに
TTITLE13=紅の翼
TTITLE14=虹の彼方に
TTITLE15=この素晴らしい世界
TTITLE16=夢幻飛行
EXTD=
EXTT0=
EXTT1=
EXTT2=
EXTT3=
EXTT4=
EXTT5=
EXTT6=
EXTT7=
EXTT8=
EXTT9=
EXTT10=
EXTT11=
EXTT12=
EXTT13=
EXTT14=
EXTT15=
EXTT16=
PLAYORDER=
